<mxfile host="app.diagrams.net" modified="2024-06-01T16:29:26.248Z" agent="Mozilla/5.0 (Windows NT 10.0; Win64; x64) AppleWebKit/537.36 (KHTML, like Gecko) Chrome/125.0.0.0 Safari/537.36" etag="RocyDoA-VvWynn3eiKJN" version="24.4.9" type="device">
  <diagram name="Page-1" id="TGwcYlwd-vij2mcF2H3f">
    <mxGraphModel dx="3402" dy="1200" grid="1" gridSize="10" guides="1" tooltips="1" connect="1" arrows="1" fold="1" page="1" pageScale="1" pageWidth="827" pageHeight="1169" math="0" shadow="0">
      <root>
        <mxCell id="0" />
        <mxCell id="1" parent="0" />
        <mxCell id="vUKvJd4QYAiQvOjU886O-36" value="" style="html=1;dashed=0;whiteSpace=wrap;fillColor=none;movable=1;resizable=1;rotatable=1;deletable=1;editable=1;locked=0;connectable=1;" parent="1" vertex="1">
          <mxGeometry x="-240" width="1020" height="730" as="geometry" />
        </mxCell>
        <mxCell id="vUKvJd4QYAiQvOjU886O-3" value="&lt;font style=&quot;font-size: 36px;&quot;&gt;Tourist&lt;/font&gt;" style="text;html=1;align=center;verticalAlign=middle;whiteSpace=wrap;rounded=0;" parent="1" vertex="1">
          <mxGeometry x="414" y="20" width="60" height="30" as="geometry" />
        </mxCell>
        <mxCell id="vUKvJd4QYAiQvOjU886O-4" value="&lt;font style=&quot;font-size: 36px;&quot;&gt;Guide&lt;/font&gt;" style="text;html=1;align=center;verticalAlign=middle;whiteSpace=wrap;rounded=0;" parent="1" vertex="1">
          <mxGeometry x="1100" y="20" width="60" height="30" as="geometry" />
        </mxCell>
        <mxCell id="vUKvJd4QYAiQvOjU886O-5" value="&lt;font style=&quot;font-size: 36px;&quot;&gt;System&lt;/font&gt;" style="text;html=1;align=center;verticalAlign=middle;whiteSpace=wrap;rounded=0;" parent="1" vertex="1">
          <mxGeometry x="1860" y="20" width="60" height="30" as="geometry" />
        </mxCell>
        <mxCell id="vUKvJd4QYAiQvOjU886O-13" value="" style="edgeStyle=orthogonalEdgeStyle;rounded=0;orthogonalLoop=1;jettySize=auto;html=1;" parent="1" source="vUKvJd4QYAiQvOjU886O-7" target="vUKvJd4QYAiQvOjU886O-10" edge="1">
          <mxGeometry relative="1" as="geometry" />
        </mxCell>
        <mxCell id="vUKvJd4QYAiQvOjU886O-7" value="" style="ellipse;html=1;shape=startState;fillColor=#000000;strokeColor=#ff0000;" parent="1" vertex="1">
          <mxGeometry x="-230" y="150" width="50" height="50" as="geometry" />
        </mxCell>
        <mxCell id="vUKvJd4QYAiQvOjU886O-19" value="" style="edgeStyle=orthogonalEdgeStyle;rounded=0;orthogonalLoop=1;jettySize=auto;html=1;" parent="1" source="vUKvJd4QYAiQvOjU886O-10" target="vUKvJd4QYAiQvOjU886O-18" edge="1">
          <mxGeometry relative="1" as="geometry" />
        </mxCell>
        <mxCell id="vUKvJd4QYAiQvOjU886O-10" value="&lt;font style=&quot;font-size: 18px;&quot;&gt;Creating complex tour request&lt;/font&gt;" style="rounded=1;whiteSpace=wrap;html=1;arcSize=40;fontColor=#000000;fillColor=#ffffc0;strokeColor=#ff0000;" parent="1" vertex="1">
          <mxGeometry x="-120" y="142.5" width="260" height="65" as="geometry" />
        </mxCell>
        <mxCell id="vUKvJd4QYAiQvOjU886O-14" value="" style="ellipse;html=1;shape=endState;fillColor=#000000;strokeColor=#ff0000;" parent="1" vertex="1">
          <mxGeometry x="610" y="610" width="50" height="50" as="geometry" />
        </mxCell>
        <mxCell id="vUKvJd4QYAiQvOjU886O-15" value="" style="rhombus;whiteSpace=wrap;html=1;fontColor=#000000;fillColor=#ffffc0;strokeColor=#ff0000;" parent="1" vertex="1">
          <mxGeometry x="1070" y="320" width="80" height="40" as="geometry" />
        </mxCell>
        <mxCell id="vUKvJd4QYAiQvOjU886O-16" value="&lt;font style=&quot;font-size: 15px;&quot;&gt;no&lt;/font&gt;" style="edgeStyle=orthogonalEdgeStyle;html=1;align=left;verticalAlign=bottom;endArrow=open;endSize=8;strokeColor=#ff0000;rounded=0;entryX=0;entryY=0.5;entryDx=0;entryDy=0;entryPerimeter=0;" parent="1" target="vUKvJd4QYAiQvOjU886O-56" edge="1">
          <mxGeometry x="-1" y="62" relative="1" as="geometry">
            <mxPoint x="1140" y="340" as="targetPoint" />
            <mxPoint x="1070" y="340" as="sourcePoint" />
            <mxPoint x="46" y="-22" as="offset" />
          </mxGeometry>
        </mxCell>
        <mxCell id="vUKvJd4QYAiQvOjU886O-17" value="&lt;font style=&quot;font-size: 15px;&quot;&gt;yes&lt;/font&gt;" style="edgeStyle=orthogonalEdgeStyle;html=1;align=left;verticalAlign=top;endArrow=open;endSize=8;strokeColor=#ff0000;rounded=0;entryX=0;entryY=0.5;entryDx=0;entryDy=0;entryPerimeter=0;" parent="1" source="vUKvJd4QYAiQvOjU886O-15" edge="1" target="vUKvJd4QYAiQvOjU886O-52">
          <mxGeometry x="-1" y="-89" relative="1" as="geometry">
            <mxPoint x="1110" y="420" as="targetPoint" />
            <mxPoint x="16" y="-50" as="offset" />
            <Array as="points">
              <mxPoint x="1110" y="440" />
            </Array>
          </mxGeometry>
        </mxCell>
        <mxCell id="vUKvJd4QYAiQvOjU886O-29" value="&lt;font style=&quot;font-size: 14px;&quot;&gt;&amp;lt;&amp;lt;Iterative&amp;gt;&amp;gt;&lt;/font&gt;" style="dashed=1;rounded=1;absoluteArcSize=1;arcSize=20;html=1;verticalAlign=top;align=left;spacingTop=5;spacingLeft=10;whiteSpace=wrap;fillColor=none;" parent="1" vertex="1">
          <mxGeometry x="190" y="90" width="290" height="170" as="geometry" />
        </mxCell>
        <mxCell id="vUKvJd4QYAiQvOjU886O-32" style="edgeStyle=orthogonalEdgeStyle;rounded=0;orthogonalLoop=1;jettySize=auto;html=1;entryX=0;entryY=0.5;entryDx=0;entryDy=0;" parent="1" source="vUKvJd4QYAiQvOjU886O-18" target="vUKvJd4QYAiQvOjU886O-33" edge="1">
          <mxGeometry relative="1" as="geometry">
            <mxPoint x="480" y="175" as="targetPoint" />
          </mxGeometry>
        </mxCell>
        <mxCell id="vUKvJd4QYAiQvOjU886O-18" value="&lt;font style=&quot;font-size: 18px;&quot;&gt;Creating basic tour request&lt;/font&gt;" style="rounded=1;whiteSpace=wrap;html=1;arcSize=40;fontColor=#000000;fillColor=#ffffc0;strokeColor=#ff0000;" parent="1" vertex="1">
          <mxGeometry x="220" y="142.5" width="230" height="65" as="geometry" />
        </mxCell>
        <mxCell id="vUKvJd4QYAiQvOjU886O-20" value="" style="rounded=0;whiteSpace=wrap;html=1;gradientColor=none;fillColor=default;strokeColor=#ff0000;" parent="1" vertex="1">
          <mxGeometry x="180" y="155" width="20" height="20" as="geometry" />
        </mxCell>
        <mxCell id="vUKvJd4QYAiQvOjU886O-22" value="" style="rounded=0;whiteSpace=wrap;html=1;gradientColor=none;fillColor=default;strokeColor=#ff0000;" parent="1" vertex="1">
          <mxGeometry x="180" y="175" width="20" height="20" as="geometry" />
        </mxCell>
        <mxCell id="vUKvJd4QYAiQvOjU886O-23" value="" style="rounded=0;whiteSpace=wrap;html=1;gradientColor=none;fillColor=default;strokeColor=#ff0000;" parent="1" vertex="1">
          <mxGeometry x="180" y="195" width="20" height="20" as="geometry" />
        </mxCell>
        <mxCell id="vUKvJd4QYAiQvOjU886O-24" value="" style="rounded=0;whiteSpace=wrap;html=1;gradientColor=none;fillColor=default;strokeColor=#ff0000;" parent="1" vertex="1">
          <mxGeometry x="180" y="135" width="20" height="20" as="geometry" />
        </mxCell>
        <mxCell id="vUKvJd4QYAiQvOjU886O-25" value="" style="rounded=0;whiteSpace=wrap;html=1;gradientColor=none;fillColor=default;strokeColor=#ff0000;" parent="1" vertex="1">
          <mxGeometry x="470" y="155" width="20" height="20" as="geometry" />
        </mxCell>
        <mxCell id="vUKvJd4QYAiQvOjU886O-26" value="" style="rounded=0;whiteSpace=wrap;html=1;gradientColor=none;fillColor=default;strokeColor=#ff0000;" parent="1" vertex="1">
          <mxGeometry x="470" y="175" width="20" height="20" as="geometry" />
        </mxCell>
        <mxCell id="vUKvJd4QYAiQvOjU886O-27" value="" style="rounded=0;whiteSpace=wrap;html=1;gradientColor=none;fillColor=default;strokeColor=#ff0000;" parent="1" vertex="1">
          <mxGeometry x="470" y="195" width="20" height="20" as="geometry" />
        </mxCell>
        <mxCell id="vUKvJd4QYAiQvOjU886O-28" value="" style="rounded=0;whiteSpace=wrap;html=1;gradientColor=none;fillColor=default;strokeColor=#ff0000;" parent="1" vertex="1">
          <mxGeometry x="470" y="135" width="20" height="20" as="geometry" />
        </mxCell>
        <mxCell id="vUKvJd4QYAiQvOjU886O-43" value="" style="edgeStyle=orthogonalEdgeStyle;rounded=0;orthogonalLoop=1;jettySize=auto;html=1;" parent="1" source="vUKvJd4QYAiQvOjU886O-33" target="vUKvJd4QYAiQvOjU886O-41" edge="1">
          <mxGeometry relative="1" as="geometry" />
        </mxCell>
        <mxCell id="vUKvJd4QYAiQvOjU886O-33" value="&lt;font style=&quot;font-size: 18px;&quot;&gt;Complex tour request&lt;/font&gt;" style="html=1;align=center;verticalAlign=middle;rounded=0;absoluteArcSize=1;arcSize=10;dashed=0;whiteSpace=wrap;fillColor=#f8cecc;strokeColor=#b85450;" parent="1" vertex="1">
          <mxGeometry x="550" y="141.25" width="190" height="67.5" as="geometry" />
        </mxCell>
        <mxCell id="vUKvJd4QYAiQvOjU886O-41" value="&lt;font style=&quot;font-size: 18px;&quot;&gt;Saving data&lt;/font&gt;" style="rounded=1;whiteSpace=wrap;html=1;arcSize=40;fontColor=#000000;fillColor=#ffffc0;strokeColor=#ff0000;" parent="1" vertex="1">
          <mxGeometry x="2080" y="142.5" width="180" height="65" as="geometry" />
        </mxCell>
        <mxCell id="vUKvJd4QYAiQvOjU886O-49" style="edgeStyle=orthogonalEdgeStyle;rounded=0;orthogonalLoop=1;jettySize=auto;html=1;entryX=1;entryY=0.5;entryDx=0;entryDy=0;exitX=0.788;exitY=0.407;exitDx=0;exitDy=0;exitPerimeter=0;" parent="1" source="vUKvJd4QYAiQvOjU886O-44" target="vUKvJd4QYAiQvOjU886O-47" edge="1">
          <mxGeometry relative="1" as="geometry">
            <mxPoint x="1690" y="340.0000000000001" as="sourcePoint" />
            <mxPoint x="1320.0000000000002" y="350" as="targetPoint" />
            <Array as="points" />
          </mxGeometry>
        </mxCell>
        <mxCell id="vUKvJd4QYAiQvOjU886O-72" style="edgeStyle=orthogonalEdgeStyle;rounded=0;orthogonalLoop=1;jettySize=auto;html=1;entryX=1;entryY=0.5;entryDx=0;entryDy=0;exitX=0.283;exitY=0.453;exitDx=0;exitDy=0;exitPerimeter=0;" parent="1" source="vUKvJd4QYAiQvOjU886O-44" target="vUKvJd4QYAiQvOjU886O-68" edge="1">
          <mxGeometry relative="1" as="geometry" />
        </mxCell>
        <mxCell id="vUKvJd4QYAiQvOjU886O-44" value="" style="shape=line;html=1;strokeWidth=19;strokeColor=#ff0000;flipV=1;flipH=1;direction=south;" parent="1" vertex="1">
          <mxGeometry x="2068" y="297.5" width="22" height="200" as="geometry" />
        </mxCell>
        <mxCell id="vUKvJd4QYAiQvOjU886O-46" style="edgeStyle=orthogonalEdgeStyle;rounded=0;orthogonalLoop=1;jettySize=auto;html=1;entryX=0.798;entryY=0.877;entryDx=0;entryDy=0;entryPerimeter=0;" parent="1" source="vUKvJd4QYAiQvOjU886O-41" target="vUKvJd4QYAiQvOjU886O-44" edge="1">
          <mxGeometry relative="1" as="geometry">
            <Array as="points">
              <mxPoint x="2168" y="337.5" />
            </Array>
          </mxGeometry>
        </mxCell>
        <mxCell id="gtN8ZMNGyt-OdePMolXq-3" value="" style="edgeStyle=orthogonalEdgeStyle;rounded=0;orthogonalLoop=1;jettySize=auto;html=1;" parent="1" source="vUKvJd4QYAiQvOjU886O-47" target="vUKvJd4QYAiQvOjU886O-54" edge="1">
          <mxGeometry relative="1" as="geometry" />
        </mxCell>
        <mxCell id="vUKvJd4QYAiQvOjU886O-47" value="&lt;font style=&quot;font-size: 18px;&quot;&gt;Showing data&lt;/font&gt;" style="rounded=1;whiteSpace=wrap;html=1;arcSize=40;fontColor=#000000;fillColor=#ffffc0;strokeColor=#ff0000;" parent="1" vertex="1">
          <mxGeometry x="1390" y="315" width="157" height="50" as="geometry" />
        </mxCell>
        <mxCell id="vUKvJd4QYAiQvOjU886O-52" value="&lt;font style=&quot;font-size: 18px;&quot;&gt;Send notification&lt;/font&gt;" style="html=1;shape=mxgraph.sysml.sendSigAct;strokeWidth=2;whiteSpace=wrap;align=center;direction=west;" parent="1" vertex="1">
          <mxGeometry x="810" y="415" width="160" height="50" as="geometry" />
        </mxCell>
        <mxCell id="vUKvJd4QYAiQvOjU886O-53" value="&lt;font style=&quot;font-size: 20px;&quot;&gt;Is accepted?&lt;/font&gt;" style="text;html=1;align=center;verticalAlign=middle;whiteSpace=wrap;rounded=0;" parent="1" vertex="1">
          <mxGeometry x="1059.93" y="270" width="120.07" height="30" as="geometry" />
        </mxCell>
        <mxCell id="gtN8ZMNGyt-OdePMolXq-2" value="" style="edgeStyle=orthogonalEdgeStyle;rounded=0;orthogonalLoop=1;jettySize=auto;html=1;" parent="1" source="vUKvJd4QYAiQvOjU886O-54" target="vUKvJd4QYAiQvOjU886O-15" edge="1">
          <mxGeometry relative="1" as="geometry" />
        </mxCell>
        <mxCell id="vUKvJd4QYAiQvOjU886O-54" value="&lt;font style=&quot;font-size: 18px;&quot;&gt;Accept/reject request&lt;/font&gt;" style="rounded=1;whiteSpace=wrap;html=1;arcSize=40;fontColor=#000000;fillColor=#ffffc0;strokeColor=#ff0000;" parent="1" vertex="1">
          <mxGeometry x="1190" y="315" width="167" height="50" as="geometry" />
        </mxCell>
        <mxCell id="vUKvJd4QYAiQvOjU886O-56" value="&lt;font style=&quot;font-size: 18px;&quot;&gt;Send notification&lt;/font&gt;" style="html=1;shape=mxgraph.sysml.sendSigAct;strokeWidth=2;whiteSpace=wrap;align=center;direction=west;" parent="1" vertex="1">
          <mxGeometry x="810" y="312.5" width="160" height="55" as="geometry" />
        </mxCell>
        <mxCell id="vUKvJd4QYAiQvOjU886O-58" value="&lt;font style=&quot;font-size: 18px;&quot;&gt;Receive notification&lt;/font&gt;" style="html=1;shape=mxgraph.sysml.accEvent;strokeWidth=2;whiteSpace=wrap;align=center;" parent="1" vertex="1">
          <mxGeometry x="390" y="312.5" width="200" height="55" as="geometry" />
        </mxCell>
        <mxCell id="vUKvJd4QYAiQvOjU886O-90" style="edgeStyle=orthogonalEdgeStyle;rounded=0;orthogonalLoop=1;jettySize=auto;html=1;entryX=0.01;entryY=0.447;entryDx=0;entryDy=0;entryPerimeter=0;" parent="1" source="vUKvJd4QYAiQvOjU886O-66" target="vUKvJd4QYAiQvOjU886O-14" edge="1">
          <mxGeometry relative="1" as="geometry">
            <mxPoint x="550" y="835" as="targetPoint" />
            <mxPoint x="160" y="399.9999999999999" as="sourcePoint" />
            <Array as="points">
              <mxPoint x="160" y="400" />
              <mxPoint x="160" y="632" />
            </Array>
          </mxGeometry>
        </mxCell>
        <mxCell id="vUKvJd4QYAiQvOjU886O-66" value="" style="shape=line;html=1;strokeWidth=19;strokeColor=#ff0000;flipV=1;flipH=1;direction=south;" parent="1" vertex="1">
          <mxGeometry x="230" y="310" width="22" height="200" as="geometry" />
        </mxCell>
        <mxCell id="vUKvJd4QYAiQvOjU886O-67" style="edgeStyle=orthogonalEdgeStyle;rounded=0;orthogonalLoop=1;jettySize=auto;html=1;entryX=0.85;entryY=0.909;entryDx=0;entryDy=0;entryPerimeter=0;" parent="1" target="vUKvJd4QYAiQvOjU886O-66" edge="1">
          <mxGeometry relative="1" as="geometry">
            <mxPoint x="410" y="340" as="sourcePoint" />
          </mxGeometry>
        </mxCell>
        <mxCell id="vUKvJd4QYAiQvOjU886O-68" value="" style="rhombus;whiteSpace=wrap;html=1;fontColor=#000000;fillColor=#ffffc0;strokeColor=#ff0000;" parent="1" vertex="1">
          <mxGeometry x="1900.07" y="420" width="80" height="40" as="geometry" />
        </mxCell>
        <mxCell id="vUKvJd4QYAiQvOjU886O-69" value="&lt;font style=&quot;font-size: 15px;&quot;&gt;no&lt;/font&gt;" style="edgeStyle=orthogonalEdgeStyle;html=1;align=left;verticalAlign=bottom;endArrow=open;endSize=8;strokeColor=#ff0000;rounded=0;entryX=1;entryY=0.5;entryDx=0;entryDy=0;" parent="1" target="vUKvJd4QYAiQvOjU886O-80" edge="1">
          <mxGeometry x="-0.5994" relative="1" as="geometry">
            <mxPoint x="1799.995925925926" y="439.66703703703695" as="targetPoint" />
            <mxPoint x="1900.07" y="439.63" as="sourcePoint" />
            <mxPoint as="offset" />
          </mxGeometry>
        </mxCell>
        <mxCell id="vUKvJd4QYAiQvOjU886O-70" value="&lt;font style=&quot;font-size: 15px;&quot;&gt;yes&lt;/font&gt;" style="edgeStyle=orthogonalEdgeStyle;html=1;align=left;verticalAlign=top;endArrow=open;endSize=8;strokeColor=#ff0000;rounded=0;" parent="1" source="vUKvJd4QYAiQvOjU886O-68" edge="1">
          <mxGeometry x="-0.9997" y="10" relative="1" as="geometry">
            <mxPoint x="1940.07" y="520" as="targetPoint" />
            <mxPoint as="offset" />
          </mxGeometry>
        </mxCell>
        <mxCell id="vUKvJd4QYAiQvOjU886O-71" value="&lt;font style=&quot;font-size: 20px;&quot;&gt;Is accepted?&lt;/font&gt;" style="text;html=1;align=center;verticalAlign=middle;whiteSpace=wrap;rounded=0;" parent="1" vertex="1">
          <mxGeometry x="1890" y="370" width="120.07" height="30" as="geometry" />
        </mxCell>
        <mxCell id="vUKvJd4QYAiQvOjU886O-73" value="&lt;font style=&quot;font-size: 18px;&quot;&gt;Set status to invalid&lt;/font&gt;" style="rounded=1;whiteSpace=wrap;html=1;arcSize=40;fontColor=#000000;fillColor=#ffffc0;strokeColor=#ff0000;" parent="1" vertex="1">
          <mxGeometry x="1850.07" y="520" width="180" height="60" as="geometry" />
        </mxCell>
        <mxCell id="vUKvJd4QYAiQvOjU886O-80" value="" style="rhombus;whiteSpace=wrap;html=1;fontColor=#000000;fillColor=#ffffc0;strokeColor=#ff0000;" parent="1" vertex="1">
          <mxGeometry x="1700" y="420" width="80" height="40" as="geometry" />
        </mxCell>
        <mxCell id="vUKvJd4QYAiQvOjU886O-82" value="&lt;font style=&quot;font-size: 15px;&quot;&gt;yes&lt;/font&gt;" style="edgeStyle=orthogonalEdgeStyle;html=1;align=left;verticalAlign=top;endArrow=open;endSize=8;strokeColor=#ff0000;rounded=0;" parent="1" source="vUKvJd4QYAiQvOjU886O-80" edge="1">
          <mxGeometry x="-0.9997" y="10" relative="1" as="geometry">
            <mxPoint x="1740" y="520" as="targetPoint" />
            <mxPoint as="offset" />
          </mxGeometry>
        </mxCell>
        <mxCell id="vUKvJd4QYAiQvOjU886O-83" value="&lt;font style=&quot;font-size: 20px;&quot;&gt;Is accepted?&lt;/font&gt;" style="text;html=1;align=center;verticalAlign=middle;whiteSpace=wrap;rounded=0;" parent="1" vertex="1">
          <mxGeometry x="1679.97" y="370" width="120.07" height="30" as="geometry" />
        </mxCell>
        <mxCell id="vUKvJd4QYAiQvOjU886O-84" value="&lt;font style=&quot;font-size: 18px;&quot;&gt;Set status to accepted&lt;/font&gt;" style="rounded=1;whiteSpace=wrap;html=1;arcSize=40;fontColor=#000000;fillColor=#ffffc0;strokeColor=#ff0000;" parent="1" vertex="1">
          <mxGeometry x="1640" y="520" width="190" height="60" as="geometry" />
        </mxCell>
        <mxCell id="vUKvJd4QYAiQvOjU886O-81" value="&lt;font style=&quot;font-size: 15px;&quot;&gt;no&lt;/font&gt;" style="edgeStyle=orthogonalEdgeStyle;html=1;align=left;verticalAlign=bottom;endArrow=open;endSize=8;strokeColor=#ff0000;rounded=0;" parent="1" edge="1">
          <mxGeometry x="-0.9603" relative="1" as="geometry">
            <mxPoint x="250" y="477" as="targetPoint" />
            <mxPoint x="1700" y="440" as="sourcePoint" />
            <mxPoint as="offset" />
            <Array as="points">
              <mxPoint x="1650" y="440" />
              <mxPoint x="1650" y="477" />
            </Array>
          </mxGeometry>
        </mxCell>
        <mxCell id="vUKvJd4QYAiQvOjU886O-86" value="" style="html=1;dashed=0;whiteSpace=wrap;fillColor=none;movable=1;resizable=1;rotatable=1;deletable=1;editable=1;locked=0;connectable=1;" parent="1" vertex="1">
          <mxGeometry x="780" width="800" height="730" as="geometry" />
        </mxCell>
        <mxCell id="vUKvJd4QYAiQvOjU886O-87" value="" style="html=1;dashed=0;whiteSpace=wrap;fillColor=none;movable=1;resizable=1;rotatable=1;deletable=1;editable=1;locked=0;connectable=1;" parent="1" vertex="1">
          <mxGeometry x="1580" width="710" height="730" as="geometry" />
        </mxCell>
      </root>
    </mxGraphModel>
  </diagram>
</mxfile>
